<?xml version="1.0" encoding="utf-8"?>
<!-- Generator: Adobe Illustrator 15.0.0, SVG Export Plug-In . SVG Version: 6.00 Build 0)  -->
<!DOCTYPE svg PUBLIC "-//W3C//DTD SVG 1.1//EN" "http://www.w3.org/Graphics/SVG/1.1/DTD/svg11.dtd">
<svg version="1.1" id="Layer_1" xmlns="http://www.w3.org/2000/svg" xmlns:xlink="http://www.w3.org/1999/xlink" x="0px" y="0px"
	 width="15px" height="15px" viewBox="5 5 15 15" enable-background="new 5 5 15 15" xml:space="preserve">
<path fill="#707070" d="M6.068,13.577c-0.15,0-0.287-0.025-0.41-0.075c-0.143-0.058-0.259-0.133-0.344-0.225
	c-0.115-0.102-0.198-0.221-0.249-0.356c-0.042-0.079-0.064-0.219-0.064-0.42c0-0.193,0.021-0.33,0.064-0.41
	c0.059-0.122,0.137-0.237,0.238-0.344c0.114-0.116,0.233-0.198,0.355-0.249c0.122-0.05,0.259-0.076,0.41-0.076h12.865
	c0.149,0,0.287,0.025,0.41,0.076c0.143,0.057,0.258,0.132,0.345,0.227c0.108,0.1,0.19,0.223,0.247,0.366
	C19.978,12.169,20,12.306,20,12.5c0,0.194-0.022,0.333-0.064,0.411c-0.058,0.121-0.138,0.237-0.237,0.344
	c-0.114,0.115-0.234,0.198-0.354,0.248c-0.123,0.05-0.261,0.075-0.41,0.075L6.068,13.577L6.068,13.577z M6.068,20
	c-0.179,0-0.316-0.024-0.41-0.075c-0.137-0.058-0.251-0.134-0.344-0.226c-0.115-0.116-0.198-0.234-0.249-0.355
	c-0.042-0.08-0.064-0.216-0.064-0.41c0-0.187,0.021-0.32,0.064-0.399c0.051-0.121,0.13-0.237,0.238-0.345
	c0.093-0.092,0.211-0.171,0.355-0.236c0.122-0.051,0.259-0.075,0.41-0.075h12.865c0.149,0,0.287,0.024,0.41,0.075
	c0.143,0.063,0.258,0.141,0.345,0.226c0.101,0.101,0.179,0.22,0.237,0.355c0.05,0.094,0.076,0.226,0.076,0.399
	c0,0.18-0.026,0.316-0.076,0.409c-0.059,0.137-0.134,0.252-0.226,0.345c-0.115,0.114-0.234,0.197-0.356,0.247
	C19.264,19.978,19.127,20,18.935,20H6.068L6.068,20z M6.068,7.145c-0.137,0-0.272-0.033-0.41-0.097
	C5.521,6.99,5.408,6.915,5.314,6.822c-0.108-0.108-0.19-0.219-0.249-0.335C5.023,6.409,5.001,6.269,5.001,6.067
	c0-0.194,0.021-0.331,0.064-0.41c0.051-0.123,0.13-0.237,0.238-0.344c0.101-0.101,0.218-0.18,0.355-0.237
	C5.751,5.025,5.889,5,6.068,5h12.866c0.179,0,0.315,0.025,0.41,0.076c0.143,0.058,0.258,0.137,0.345,0.237
	c0.101,0.086,0.179,0.201,0.236,0.344c0.051,0.093,0.076,0.229,0.076,0.41c0,0.186-0.025,0.327-0.076,0.419
	C19.874,6.609,19.8,6.721,19.7,6.822c-0.131,0.093-0.248,0.168-0.356,0.227c-0.136,0.063-0.272,0.097-0.409,0.097H6.068z"/>
</svg>
