<?xml version="1.0" encoding="utf-8"?>
<!-- Generator: Adobe Illustrator 15.0.0, SVG Export Plug-In . SVG Version: 6.00 Build 0)  -->
<!DOCTYPE svg PUBLIC "-//W3C//DTD SVG 1.1//EN" "http://www.w3.org/Graphics/SVG/1.1/DTD/svg11.dtd">
<svg version="1.1" id="Layer_1" xmlns="http://www.w3.org/2000/svg" xmlns:xlink="http://www.w3.org/1999/xlink" x="0px" y="0px"
	 width="50px" height="50px" viewBox="7 6 50 50" enable-background="new 7 6 50 50" xml:space="preserve">
<linearGradient id="SVGID_1_" gradientUnits="userSpaceOnUse" x1="294.2246" y1="-327.3945" x2="294.2246" y2="-377.3945" gradientTransform="matrix(1 0 0 -1 -262.2246 -321.3945)">
	<stop  offset="0" style="stop-color:#42D778"/>
	<stop  offset="0.996" style="stop-color:#34B171"/>
	<stop  offset="1" style="stop-color:#34B171"/>
</linearGradient>
<path fill="url(#SVGID_1_)" d="M57,31c0,13.805-11.195,25-25,25C18.195,56,7,44.805,7,31C7,17.195,18.195,6,32,6
	C45.805,6,57,17.195,57,31z"/>
<path fill="#FFFFFF" d="M32,18L32,18c1.657,0,3,1.343,3,3v20c0,1.657-1.343,3-3,3l0,0c-1.657,0-3-1.343-3-3V21
	C29,19.343,30.343,18,32,18z"/>
<path fill="#FFFFFF" d="M45,31L45,31c0,1.657-1.343,3-3,3H22c-1.657,0-3-1.343-3-3l0,0c0-1.657,1.343-3,3-3h20
	C43.657,28,45,29.343,45,31z"/>
</svg>
